<svg xmlns="http://www.w3.org/2000/svg" version="1.0" viewBox="0 0 192 192">
  <defs/>
  <g fill="#5a67d8">
    <path d="M27.1 1.1C14.1 3.6 3.5 14.4 1 27.5c-1.6 8.7-.9 136.6.8 141.7 3.1 9.2 12.4 18.3 21.5 21 6.1 1.9 139.3 1.9 145.4 0 9.1-2.7 18.4-11.8 21.5-21 1.7-5.1 2.4-133 .8-141.7C188.4 14 177.9 3.6 164.1 1c-6.6-1.2-130.6-1.2-137 .1zm78.5 34.4c14.9 3.5 27.3 13.1 33.3 25.8 19.7 41.5-23.7 84-64.8 63.3-2.9-1.4-5.5-2.6-5.7-2.6-.2 0-.4 7.7-.4 17.1v17.1l-2.9 2.9c-3.1 3.1-6.8 3.7-11.6 1.9-5.2-2-5.5-4.6-5.5-44.7 0-20.2.4-39.4 1-42.5 2.9-18.3 17.8-33.6 36.9-38.3 7.4-1.8 12.3-1.8 19.7 0z"/>
    <path d="M85.1 54.9C75.9 58.6 69.4 66.5 67 76.7c-1.4 6-.3 12.8 3.1 19.4 2.4 4.9 2 7.2-2 11.6l-3 3.3h3.3c1.8 0 5.4-.6 8-1.4 4.2-1.3 5.2-1.2 10.1.5 16.6 5.8 33.6-3.7 38.1-21.2 1.9-7.4.8-14.6-3.2-21.6-6.9-12-23.4-17.6-36.3-12.4z"/>
  </g>
</svg>
